<svg width="68" height="40" viewBox="0 0 68 40" fill="none" xmlns="http://www.w3.org/2000/svg">
<path d="M1.9699 21V3.54545H8.51536C9.85627 3.54545 10.9813 3.77841 11.8904 4.24432C12.8051 4.71023 13.4955 5.36364 13.9614 6.20454C14.433 7.03977 14.6688 8.0142 14.6688 9.12784C14.6688 10.2472 14.4301 11.2187 13.9529 12.0426C13.4813 12.8608 12.7852 13.4943 11.8648 13.9432C10.9443 14.3864 9.81365 14.608 8.47274 14.608H3.81081V11.983H8.04661C8.8307 11.983 9.47274 11.875 9.97274 11.6591C10.4727 11.4375 10.8421 11.1165 11.0807 10.696C11.325 10.2699 11.4472 9.74716 11.4472 9.12784C11.4472 8.50852 11.325 7.98011 11.0807 7.54261C10.8364 7.09943 10.4642 6.7642 9.96422 6.53693C9.46422 6.30398 8.81933 6.1875 8.02956 6.1875H5.13183V21H1.9699ZM10.9869 13.0909L15.308 21H11.7796L7.53524 13.0909H10.9869ZM17.6273 21V3.54545H28.9796V6.19602H20.7892V10.9347H28.3915V13.5852H20.7892V18.3494H29.0477V21H17.6273ZM35.4153 3.54545V21H32.2534V3.54545H35.4153ZM48.3731 8.34375C48.2936 7.59943 47.9584 7.01989 47.3675 6.60511C46.7822 6.19034 46.0209 5.98295 45.0834 5.98295C44.4243 5.98295 43.8589 6.08239 43.3873 6.28125C42.9157 6.48011 42.555 6.75 42.305 7.09091C42.055 7.43182 41.9271 7.82102 41.9214 8.25852C41.9214 8.62216 42.0038 8.9375 42.1686 9.20455C42.339 9.47159 42.5692 9.69886 42.8589 9.88636C43.1487 10.0682 43.4697 10.2216 43.822 10.3466C44.1743 10.4716 44.5294 10.5767 44.8873 10.6619L46.5237 11.071C47.1828 11.2244 47.8163 11.4318 48.4243 11.6932C49.0379 11.9545 49.5862 12.2841 50.0692 12.6818C50.5578 13.0795 50.9442 13.5597 51.2282 14.1222C51.5123 14.6847 51.6544 15.3437 51.6544 16.0994C51.6544 17.1222 51.393 18.0227 50.8703 18.8011C50.3476 19.5739 49.5919 20.179 48.6032 20.6165C47.6203 21.0483 46.43 21.2642 45.0322 21.2642C43.6743 21.2642 42.4953 21.054 41.4953 20.6335C40.501 20.2131 39.7226 19.5994 39.1601 18.7926C38.6032 17.9858 38.3021 17.0028 38.2567 15.8438H41.3675C41.4129 16.4517 41.6004 16.9574 41.93 17.3608C42.2595 17.7642 42.6885 18.0653 43.2169 18.2642C43.751 18.4631 44.3476 18.5625 45.0067 18.5625C45.6942 18.5625 46.2964 18.4602 46.8135 18.2557C47.3362 18.0455 47.7453 17.7557 48.0407 17.3864C48.3362 17.0114 48.4868 16.5739 48.4925 16.0739C48.4868 15.6193 48.3532 15.2443 48.0919 14.9489C47.8305 14.6477 47.464 14.3977 46.9925 14.1989C46.5265 13.9943 45.9811 13.8125 45.3561 13.6534L43.3703 13.142C41.9328 12.7727 40.7964 12.2131 39.9612 11.4631C39.1317 10.7074 38.7169 9.70455 38.7169 8.45454C38.7169 7.42614 38.9953 6.52557 39.5521 5.75284C40.1146 4.98011 40.8788 4.38068 41.8447 3.95454C42.8106 3.52273 43.9044 3.30682 45.126 3.30682C46.3646 3.30682 47.4498 3.52273 48.3817 3.95454C49.3192 4.38068 50.055 4.97443 50.589 5.73579C51.1231 6.49148 51.3987 7.3608 51.4157 8.34375H48.3731Z" fill="#4A60A1"/>
<path d="M1.19869 37V26.8182H4.82795C5.61677 26.8182 6.27137 26.9541 6.79173 27.2259C7.3154 27.4976 7.7065 27.8738 7.96502 28.3544C8.22354 28.8317 8.35281 29.3835 8.35281 30.0099C8.35281 30.633 8.22189 31.1816 7.96005 31.6555C7.70153 32.1262 7.31043 32.4924 6.78675 32.7543C6.26639 33.0161 5.6118 33.147 4.82298 33.147H2.07369V31.8246H4.68377C5.18093 31.8246 5.58529 31.7533 5.89684 31.6108C6.21171 31.4683 6.44206 31.2611 6.58789 30.9893C6.73372 30.7176 6.80664 30.3911 6.80664 30.0099C6.80664 29.6255 6.73207 29.2924 6.58292 29.0107C6.43709 28.7289 6.20674 28.5135 5.89187 28.3643C5.58031 28.2119 5.17099 28.1357 4.66389 28.1357H2.73491V37H1.19869ZM6.22496 32.4062L8.74059 37H6.99059L4.52468 32.4062H6.22496ZM13.2983 37.1541C12.5459 37.1541 11.898 36.9934 11.3544 36.6719C10.8142 36.3471 10.3965 35.8913 10.1016 35.3047C9.8099 34.7147 9.66406 34.0237 9.66406 33.2315C9.66406 32.4493 9.8099 31.7599 10.1016 31.1634C10.3965 30.5668 10.8075 30.1011 11.3345 29.7663C11.8648 29.4316 12.4846 29.2642 13.1939 29.2642C13.6248 29.2642 14.0424 29.3355 14.4467 29.478C14.8511 29.6205 15.214 29.8442 15.5355 30.1491C15.857 30.4541 16.1106 30.8501 16.2962 31.3374C16.4818 31.8213 16.5746 32.4096 16.5746 33.1023V33.6293H10.5043V32.5156H15.1179C15.1179 32.1245 15.0384 31.7782 14.8793 31.4766C14.7202 31.1716 14.4964 30.9313 14.2081 30.7557C13.9231 30.58 13.5883 30.4922 13.2038 30.4922C12.7862 30.4922 12.4216 30.5949 12.1101 30.8004C11.8018 31.0026 11.5632 31.2678 11.3942 31.5959C11.2285 31.9207 11.1456 32.2737 11.1456 32.6548V33.5249C11.1456 34.0353 11.2351 34.4695 11.4141 34.8274C11.5964 35.1854 11.8499 35.4588 12.1747 35.6477C12.4995 35.8333 12.879 35.9261 13.3132 35.9261C13.5949 35.9261 13.8518 35.8864 14.0838 35.8068C14.3158 35.724 14.5163 35.6013 14.6854 35.4389C14.8544 35.2765 14.9837 35.076 15.0732 34.8374L16.4801 35.0909C16.3674 35.5052 16.1652 35.8681 15.8736 36.1797C15.5852 36.4879 15.2223 36.7282 14.7848 36.9006C14.3506 37.0696 13.8551 37.1541 13.2983 37.1541ZM20.4462 37.169C19.9623 37.169 19.5248 37.0795 19.1337 36.9006C18.7426 36.7183 18.4327 36.4548 18.204 36.1101C17.9786 35.7654 17.8659 35.3428 17.8659 34.8423C17.8659 34.4115 17.9488 34.0568 18.1145 33.7784C18.2802 33.5 18.504 33.2796 18.7857 33.1172C19.0674 32.9548 19.3823 32.8321 19.7303 32.7493C20.0783 32.6664 20.4329 32.6035 20.7942 32.5604C21.2516 32.5073 21.6228 32.4643 21.9078 32.4311C22.1929 32.3946 22.4 32.3366 22.5293 32.2571C22.6586 32.1776 22.7232 32.0483 22.7232 31.8693V31.8345C22.7232 31.4003 22.6006 31.0639 22.3553 30.8253C22.1133 30.5866 21.7521 30.4673 21.2715 30.4673C20.771 30.4673 20.3766 30.5784 20.0882 30.8004C19.8032 31.0192 19.606 31.2628 19.4966 31.5312L18.0996 31.2131C18.2653 30.7491 18.5073 30.3745 18.8255 30.0895C19.147 29.8011 19.5165 29.5923 19.9341 29.4631C20.3517 29.3305 20.7909 29.2642 21.2516 29.2642C21.5565 29.2642 21.8797 29.3007 22.2211 29.3736C22.5658 29.4432 22.8873 29.5724 23.1855 29.7614C23.4872 29.9503 23.7341 30.2204 23.9263 30.5717C24.1185 30.9197 24.2147 31.3722 24.2147 31.929V37H22.763V35.956H22.7033C22.6072 36.1482 22.463 36.3371 22.2708 36.5227C22.0785 36.7083 21.8316 36.8625 21.53 36.9851C21.2284 37.1077 20.8671 37.169 20.4462 37.169ZM20.7694 35.9759C21.1803 35.9759 21.5317 35.8946 21.8233 35.7322C22.1183 35.5698 22.342 35.3577 22.4945 35.0959C22.6503 34.8307 22.7282 34.5473 22.7282 34.2457V33.2614C22.6751 33.3144 22.5724 33.3641 22.4199 33.4105C22.2708 33.4536 22.1001 33.4917 21.9078 33.5249C21.7156 33.5547 21.5284 33.5829 21.3461 33.6094C21.1638 33.6326 21.0113 33.6525 20.8887 33.669C20.6003 33.7055 20.3368 33.7668 20.0982 33.853C19.8629 33.9392 19.6739 34.0634 19.5314 34.2259C19.3922 34.3849 19.3226 34.5971 19.3226 34.8622C19.3226 35.2301 19.4585 35.5085 19.7303 35.6974C20.0021 35.883 20.3484 35.9759 20.7694 35.9759ZM27.6811 26.8182V37H26.1946V26.8182H27.6811ZM39.0586 29.4929C39.0056 29.0223 38.7868 28.6577 38.4023 28.3991C38.0179 28.1373 37.534 28.0064 36.9506 28.0064C36.533 28.0064 36.1718 28.0727 35.8668 28.2053C35.5619 28.3345 35.3249 28.5135 35.1559 28.7422C34.9902 28.9676 34.9073 29.2244 34.9073 29.5128C34.9073 29.7547 34.9637 29.9635 35.0763 30.1392C35.1924 30.3149 35.3432 30.4624 35.5288 30.5817C35.7177 30.6977 35.9199 30.7955 36.1353 30.875C36.3507 30.9512 36.5579 31.0142 36.7567 31.0639L37.7511 31.3224C38.0759 31.402 38.409 31.5097 38.7504 31.6456C39.0917 31.7815 39.4083 31.9605 39.6999 32.1825C39.9916 32.4046 40.2269 32.6797 40.4059 33.0078C40.5882 33.3359 40.6793 33.7287 40.6793 34.1861C40.6793 34.7628 40.5302 35.2749 40.2319 35.7223C39.9369 36.1697 39.5077 36.5227 38.9442 36.7812C38.3841 37.0398 37.7063 37.169 36.9109 37.169C36.1486 37.169 35.489 37.0481 34.9322 36.8061C34.3754 36.5642 33.9395 36.2211 33.6246 35.777C33.3098 35.3295 33.1358 34.7992 33.1026 34.1861H34.6438C34.6737 34.554 34.793 34.8606 35.0018 35.1058C35.2139 35.3478 35.484 35.5284 35.8121 35.6477C36.1436 35.7637 36.5065 35.8217 36.9009 35.8217C37.3351 35.8217 37.7212 35.7538 38.0593 35.6179C38.4007 35.4787 38.6692 35.2865 38.8647 35.0412C39.0603 34.7926 39.158 34.5026 39.158 34.1712C39.158 33.8696 39.0719 33.6226 38.8995 33.4304C38.7305 33.2382 38.5001 33.0791 38.2085 32.9531C37.9201 32.8272 37.5936 32.7161 37.229 32.62L36.0259 32.2919C35.2106 32.0698 34.5643 31.7434 34.087 31.3125C33.613 30.8816 33.3761 30.3116 33.3761 29.6023C33.3761 29.0156 33.5352 28.5036 33.8533 28.0661C34.1715 27.6286 34.6024 27.2888 35.146 27.0469C35.6895 26.8016 36.3027 26.679 36.9854 26.679C37.6748 26.679 38.283 26.8 38.81 27.0419C39.3403 27.2839 39.7579 27.617 40.0629 28.0412C40.3678 28.4621 40.5269 28.946 40.5401 29.4929H39.0586ZM45.9604 29.3636V30.5568H41.7892V29.3636H45.9604ZM42.9078 27.5341H44.3944V34.7578C44.3944 35.0462 44.4374 35.2633 44.5236 35.4091C44.6098 35.5516 44.7208 35.6494 44.8567 35.7024C44.9959 35.7521 45.1467 35.777 45.3091 35.777C45.4284 35.777 45.5328 35.7687 45.6223 35.7521C45.7118 35.7356 45.7814 35.7223 45.8311 35.7124L46.0996 36.9403C46.0134 36.9735 45.8908 37.0066 45.7317 37.0398C45.5726 37.0762 45.3738 37.0961 45.1351 37.0994C44.744 37.1061 44.3794 37.0365 44.0414 36.8906C43.7033 36.7448 43.4299 36.5194 43.2211 36.2145C43.0123 35.9096 42.9078 35.5268 42.9078 35.0661V27.5341ZM49.8271 37.169C49.3432 37.169 48.9057 37.0795 48.5146 36.9006C48.1235 36.7183 47.8136 36.4548 47.5849 36.1101C47.3595 35.7654 47.2468 35.3428 47.2468 34.8423C47.2468 34.4115 47.3297 34.0568 47.4954 33.7784C47.6611 33.5 47.8848 33.2796 48.1665 33.1172C48.4483 32.9548 48.7631 32.8321 49.1112 32.7493C49.4592 32.6664 49.8138 32.6035 50.1751 32.5604C50.6325 32.5073 51.0037 32.4643 51.2887 32.4311C51.5737 32.3946 51.7809 32.3366 51.9102 32.2571C52.0394 32.1776 52.104 32.0483 52.104 31.8693V31.8345C52.104 31.4003 51.9814 31.0639 51.7362 30.8253C51.4942 30.5866 51.1329 30.4673 50.6523 30.4673C50.1519 30.4673 49.7575 30.5784 49.4691 30.8004C49.1841 31.0192 48.9869 31.2628 48.8775 31.5312L47.4805 31.2131C47.6462 30.7491 47.8881 30.3745 48.2063 30.0895C48.5278 29.8011 48.8974 29.5923 49.315 29.4631C49.7326 29.3305 50.1718 29.2642 50.6325 29.2642C50.9374 29.2642 51.2605 29.3007 51.6019 29.3736C51.9466 29.4432 52.2681 29.5724 52.5664 29.7614C52.868 29.9503 53.1149 30.2204 53.3072 30.5717C53.4994 30.9197 53.5955 31.3722 53.5955 31.929V37H52.1438V35.956H52.0842C51.988 36.1482 51.8439 36.3371 51.6516 36.5227C51.4594 36.7083 51.2125 36.8625 50.9109 36.9851C50.6093 37.1077 50.248 37.169 49.8271 37.169ZM50.1502 35.9759C50.5612 35.9759 50.9125 35.8946 51.2042 35.7322C51.4992 35.5698 51.7229 35.3577 51.8754 35.0959C52.0311 34.8307 52.109 34.5473 52.109 34.2457V33.2614C52.056 33.3144 51.9532 33.3641 51.8008 33.4105C51.6516 33.4536 51.4809 33.4917 51.2887 33.5249C51.0965 33.5547 50.9092 33.5829 50.7269 33.6094C50.5446 33.6326 50.3922 33.6525 50.2695 33.669C49.9812 33.7055 49.7177 33.7668 49.479 33.853C49.2437 33.9392 49.0548 34.0634 48.9123 34.2259C48.7731 34.3849 48.7035 34.5971 48.7035 34.8622C48.7035 35.2301 48.8394 35.5085 49.1112 35.6974C49.3829 35.883 49.7293 35.9759 50.1502 35.9759ZM59.1401 29.3636V30.5568H54.9689V29.3636H59.1401ZM56.0875 27.5341H57.574V34.7578C57.574 35.0462 57.6171 35.2633 57.7033 35.4091C57.7895 35.5516 57.9005 35.6494 58.0364 35.7024C58.1756 35.7521 58.3264 35.777 58.4888 35.777C58.6081 35.777 58.7125 35.7687 58.802 35.7521C58.8915 35.7356 58.9611 35.7223 59.0108 35.7124L59.2793 36.9403C59.1931 36.9735 59.0705 37.0066 58.9114 37.0398C58.7523 37.0762 58.5534 37.0961 58.3148 37.0994C57.9237 37.1061 57.5591 37.0365 57.2211 36.8906C56.883 36.7448 56.6096 36.5194 56.4007 36.2145C56.1919 35.9096 56.0875 35.5268 56.0875 35.0661V27.5341ZM63.9936 37.1541C63.2412 37.1541 62.5933 36.9934 62.0497 36.6719C61.5095 36.3471 61.0919 35.8913 60.7969 35.3047C60.5052 34.7147 60.3594 34.0237 60.3594 33.2315C60.3594 32.4493 60.5052 31.7599 60.7969 31.1634C61.0919 30.5668 61.5028 30.1011 62.0298 29.7663C62.5601 29.4316 63.1799 29.2642 63.8892 29.2642C64.3201 29.2642 64.7377 29.3355 65.142 29.478C65.5464 29.6205 65.9093 29.8442 66.2308 30.1491C66.5523 30.4541 66.8059 30.8501 66.9915 31.3374C67.1771 31.8213 67.2699 32.4096 67.2699 33.1023V33.6293H61.1996V32.5156H65.8132C65.8132 32.1245 65.7337 31.7782 65.5746 31.4766C65.4155 31.1716 65.1918 30.9313 64.9034 30.7557C64.6184 30.58 64.2836 30.4922 63.8991 30.4922C63.4815 30.4922 63.117 30.5949 62.8054 30.8004C62.4972 31.0026 62.2585 31.2678 62.0895 31.5959C61.9238 31.9207 61.8409 32.2737 61.8409 32.6548V33.5249C61.8409 34.0353 61.9304 34.4695 62.1094 34.8274C62.2917 35.1854 62.5452 35.4588 62.87 35.6477C63.1948 35.8333 63.5743 35.9261 64.0085 35.9261C64.2902 35.9261 64.5471 35.8864 64.7791 35.8068C65.0111 35.724 65.2116 35.6013 65.3807 35.4389C65.5497 35.2765 65.679 35.076 65.7685 34.8374L67.1754 35.0909C67.0627 35.5052 66.8606 35.8681 66.5689 36.1797C66.2805 36.4879 65.9176 36.7282 65.4801 36.9006C65.0459 37.0696 64.5504 37.1541 63.9936 37.1541Z" fill="#4A60A1"/>
</svg>
